<?xml version="1.0" standalone="no"?>
<!DOCTYPE svg PUBLIC "-//W3C//DTD SVG 20010904//EN"
 "http://www.w3.org/TR/2001/REC-SVG-20010904/DTD/svg10.dtd">
<svg version="1.0" xmlns="http://www.w3.org/2000/svg"
 width="231.000000pt" height="218.000000pt" viewBox="0 0 231.000000 218.000000"
 preserveAspectRatio="xMidYMid meet">

<g transform="translate(0.000000,218.000000) scale(0.100000,-0.100000)"
fill="#000000" stroke="none">
<path d="M1012 1898 l2 -173 3 168 3 167 135 0 135 0 3 -172 3 -173 2 178 2
177 -145 0 -145 0 2 -172z"/>
<path d="M818 1663 c27 -32 60 -67 73 -78 13 -11 -4 12 -38 50 l-62 70 112 6
112 5 -123 2 -124 2 50 -57z"/>
<path d="M1413 1713 c101 -3 108 -5 96 -21 -11 -13 -9 -13 9 2 12 11 22 21 22
23 0 1 -53 2 -117 1 l-118 -2 108 -3z"/>
<path d="M1450 1625 c-24 -25 -42 -45 -39 -45 3 0 25 20 49 45 24 25 42 45 39
45 -3 0 -25 -20 -49 -45z"/>
<path d="M253 1594 c-24 -14 -54 -44 -68 -68 l-25 -43 0 -532 c0 -511 1 -533
20 -571 33 -65 112 -109 197 -110 l23 0 2 525 3 526 374 -271 c205 -149 378
-269 385 -266 6 2 175 124 376 270 l365 265 3 -525 c3 -596 -9 -535 93 -513
68 15 130 75 147 141 15 60 17 996 2 1049 -15 54 -51 101 -95 126 -82 47 -70
53 -505 -277 l-394 -299 -36 27 c-19 15 -197 150 -395 299 -399 303 -389 297
-472 247z"/>
<path d="M1369 1533 l-34 -38 38 34 c34 33 42 41 34 41 -2 0 -19 -17 -38 -37z"/>
<path d="M1016 1443 c59 -68 109 -123 112 -123 6 0 -84 102 -158 180 -34 36
-13 10 46 -57z"/>
<path d="M1285 1438 l-40 -43 43 40 c39 36 47 45 39 45 -2 0 -21 -19 -42 -42z"/>
<path d="M1209 1353 c-34 -36 -74 -89 -53 -68 24 23 96 105 92 105 -2 0 -20
-17 -39 -37z"/>
</g>
</svg>
